<mxfile host="app.diagrams.net" modified="2021-07-19T06:48:20.708Z" agent="5.0 (Windows NT 10.0; Win64; x64) AppleWebKit/537.36 (KHTML, like Gecko) Chrome/91.0.4472.164 Safari/537.36" etag="-MKThxbW_wW2VM1G56aX" version="14.9.0" type="github">
  <diagram id="uY1XVgS073A_Wf4YaKV7" name="Page-1">
    <mxGraphModel dx="1718" dy="1596" grid="1" gridSize="10" guides="1" tooltips="1" connect="1" arrows="1" fold="1" page="1" pageScale="1" pageWidth="850" pageHeight="1100" math="0" shadow="0">
      <root>
        <mxCell id="0" />
        <mxCell id="1" parent="0" />
        <mxCell id="a72-MfRlyAKctN8nn2GD-4" style="edgeStyle=orthogonalEdgeStyle;rounded=0;orthogonalLoop=1;jettySize=auto;html=1;" edge="1" parent="1" source="a72-MfRlyAKctN8nn2GD-1">
          <mxGeometry relative="1" as="geometry">
            <mxPoint x="55" y="190" as="targetPoint" />
          </mxGeometry>
        </mxCell>
        <mxCell id="a72-MfRlyAKctN8nn2GD-1" value="Actor" style="shape=umlActor;verticalLabelPosition=bottom;verticalAlign=top;html=1;outlineConnect=0;" vertex="1" parent="1">
          <mxGeometry x="40" y="90" width="30" height="60" as="geometry" />
        </mxCell>
        <object label="New Volunteer" id="a72-MfRlyAKctN8nn2GD-5">
          <mxCell style="shape=umlActor;verticalLabelPosition=bottom;verticalAlign=top;html=1;outlineConnect=0;" vertex="1" parent="1">
            <mxGeometry x="30" y="-735" width="30" height="60" as="geometry" />
          </mxCell>
        </object>
        <mxCell id="a72-MfRlyAKctN8nn2GD-6" value="Existing Volunteer" style="shape=umlActor;verticalLabelPosition=bottom;verticalAlign=top;html=1;outlineConnect=0;" vertex="1" parent="1">
          <mxGeometry x="30" y="-430" width="30" height="60" as="geometry" />
        </mxCell>
        <mxCell id="a72-MfRlyAKctN8nn2GD-9" value="" style="endArrow=classic;html=1;" edge="1" parent="1">
          <mxGeometry width="50" height="50" relative="1" as="geometry">
            <mxPoint x="60" y="-710" as="sourcePoint" />
            <mxPoint x="110" y="-760" as="targetPoint" />
          </mxGeometry>
        </mxCell>
        <mxCell id="a72-MfRlyAKctN8nn2GD-10" value="" style="ellipse;whiteSpace=wrap;html=1;" vertex="1" parent="1">
          <mxGeometry x="100" y="-810" width="120" height="70" as="geometry" />
        </mxCell>
        <mxCell id="a72-MfRlyAKctN8nn2GD-12" value="New Sign up" style="text;html=1;strokeColor=none;fillColor=none;align=center;verticalAlign=middle;whiteSpace=wrap;rounded=0;" vertex="1" parent="1">
          <mxGeometry x="125" y="-790" width="70" height="30" as="geometry" />
        </mxCell>
        <mxCell id="a72-MfRlyAKctN8nn2GD-13" value="" style="endArrow=none;dashed=1;html=1;" edge="1" parent="1">
          <mxGeometry width="50" height="50" relative="1" as="geometry">
            <mxPoint x="220" y="-790" as="sourcePoint" />
            <mxPoint x="311.66666666666674" y="-840" as="targetPoint" />
          </mxGeometry>
        </mxCell>
        <mxCell id="a72-MfRlyAKctN8nn2GD-16" value="includes" style="text;html=1;strokeColor=none;fillColor=none;align=center;verticalAlign=middle;whiteSpace=wrap;rounded=0;rotation=-30;" vertex="1" parent="1">
          <mxGeometry x="220" y="-840" width="40" height="20" as="geometry" />
        </mxCell>
        <mxCell id="a72-MfRlyAKctN8nn2GD-17" value="" style="ellipse;whiteSpace=wrap;html=1;" vertex="1" parent="1">
          <mxGeometry x="310" y="-880" width="160" height="60" as="geometry" />
        </mxCell>
        <mxCell id="a72-MfRlyAKctN8nn2GD-18" value="payments for currnet membership" style="text;html=1;strokeColor=none;fillColor=none;align=center;verticalAlign=middle;whiteSpace=wrap;rounded=0;" vertex="1" parent="1">
          <mxGeometry x="380" y="-860" width="40" height="20" as="geometry" />
        </mxCell>
        <mxCell id="a72-MfRlyAKctN8nn2GD-20" value="" style="endArrow=none;html=1;" edge="1" parent="1" target="a72-MfRlyAKctN8nn2GD-21">
          <mxGeometry width="50" height="50" relative="1" as="geometry">
            <mxPoint x="60" y="-710.5" as="sourcePoint" />
            <mxPoint x="300" y="-710" as="targetPoint" />
          </mxGeometry>
        </mxCell>
        <mxCell id="a72-MfRlyAKctN8nn2GD-21" value="" style="ellipse;whiteSpace=wrap;html=1;" vertex="1" parent="1">
          <mxGeometry x="300" y="-750" width="120" height="70" as="geometry" />
        </mxCell>
        <mxCell id="a72-MfRlyAKctN8nn2GD-22" value="Find community" style="text;html=1;strokeColor=none;fillColor=none;align=center;verticalAlign=middle;whiteSpace=wrap;rounded=0;" vertex="1" parent="1">
          <mxGeometry x="340" y="-730" width="40" height="20" as="geometry" />
        </mxCell>
        <mxCell id="a72-MfRlyAKctN8nn2GD-24" value="Charity Manager" style="shape=umlActor;verticalLabelPosition=bottom;verticalAlign=top;html=1;outlineConnect=0;" vertex="1" parent="1">
          <mxGeometry x="790" y="-745" width="30" height="60" as="geometry" />
        </mxCell>
        <mxCell id="a72-MfRlyAKctN8nn2GD-26" value="" style="endArrow=classic;html=1;" edge="1" parent="1">
          <mxGeometry width="50" height="50" relative="1" as="geometry">
            <mxPoint x="790" y="-720.5" as="sourcePoint" />
            <mxPoint x="420" y="-720" as="targetPoint" />
          </mxGeometry>
        </mxCell>
        <mxCell id="a72-MfRlyAKctN8nn2GD-27" value="Sending Text" style="text;html=1;strokeColor=none;fillColor=none;align=center;verticalAlign=middle;whiteSpace=wrap;rounded=0;" vertex="1" parent="1">
          <mxGeometry x="570" y="-745" width="80" height="20" as="geometry" />
        </mxCell>
        <mxCell id="a72-MfRlyAKctN8nn2GD-29" value="" style="ellipse;whiteSpace=wrap;html=1;" vertex="1" parent="1">
          <mxGeometry x="150" y="-600" width="70" height="60" as="geometry" />
        </mxCell>
        <mxCell id="a72-MfRlyAKctN8nn2GD-30" value="Writing message to owner" style="text;html=1;strokeColor=none;fillColor=none;align=center;verticalAlign=middle;whiteSpace=wrap;rounded=0;" vertex="1" parent="1">
          <mxGeometry x="150" y="-580" width="70" height="20" as="geometry" />
        </mxCell>
        <mxCell id="a72-MfRlyAKctN8nn2GD-31" style="edgeStyle=orthogonalEdgeStyle;rounded=0;orthogonalLoop=1;jettySize=auto;html=1;exitX=0.5;exitY=1;exitDx=0;exitDy=0;" edge="1" parent="1" source="a72-MfRlyAKctN8nn2GD-30" target="a72-MfRlyAKctN8nn2GD-30">
          <mxGeometry relative="1" as="geometry" />
        </mxCell>
        <mxCell id="a72-MfRlyAKctN8nn2GD-32" value="" style="endArrow=classic;html=1;entryX=0;entryY=1;entryDx=0;entryDy=0;" edge="1" parent="1" target="a72-MfRlyAKctN8nn2GD-29">
          <mxGeometry width="50" height="50" relative="1" as="geometry">
            <mxPoint x="50" y="-430" as="sourcePoint" />
            <mxPoint x="160" y="-540" as="targetPoint" />
          </mxGeometry>
        </mxCell>
        <mxCell id="a72-MfRlyAKctN8nn2GD-34" value="" style="endArrow=none;dashed=1;html=1;exitX=0.5;exitY=0;exitDx=0;exitDy=0;" edge="1" parent="1" source="a72-MfRlyAKctN8nn2GD-29" target="a72-MfRlyAKctN8nn2GD-17">
          <mxGeometry width="50" height="50" relative="1" as="geometry">
            <mxPoint x="220" y="-610" as="sourcePoint" />
            <mxPoint x="270" y="-660" as="targetPoint" />
          </mxGeometry>
        </mxCell>
        <mxCell id="a72-MfRlyAKctN8nn2GD-35" value="includes" style="text;html=1;strokeColor=none;fillColor=none;align=center;verticalAlign=middle;whiteSpace=wrap;rounded=0;rotation=-50;" vertex="1" parent="1">
          <mxGeometry x="230" y="-695" width="40" height="20" as="geometry" />
        </mxCell>
        <mxCell id="a72-MfRlyAKctN8nn2GD-36" value="" style="ellipse;whiteSpace=wrap;html=1;" vertex="1" parent="1">
          <mxGeometry x="5" y="-570" width="105" height="60" as="geometry" />
        </mxCell>
        <mxCell id="a72-MfRlyAKctN8nn2GD-37" value="add new skills" style="text;html=1;strokeColor=none;fillColor=none;align=center;verticalAlign=middle;whiteSpace=wrap;rounded=0;" vertex="1" parent="1">
          <mxGeometry x="37.5" y="-550" width="40" height="20" as="geometry" />
        </mxCell>
        <mxCell id="a72-MfRlyAKctN8nn2GD-38" value="" style="endArrow=none;html=1;entryX=0.571;entryY=1.033;entryDx=0;entryDy=0;entryPerimeter=0;exitX=0.5;exitY=0;exitDx=0;exitDy=0;exitPerimeter=0;" edge="1" parent="1" source="a72-MfRlyAKctN8nn2GD-6" target="a72-MfRlyAKctN8nn2GD-36">
          <mxGeometry width="50" height="50" relative="1" as="geometry">
            <mxPoint x="50" y="-440" as="sourcePoint" />
            <mxPoint x="70" y="-480" as="targetPoint" />
          </mxGeometry>
        </mxCell>
        <mxCell id="a72-MfRlyAKctN8nn2GD-39" value="" style="endArrow=none;html=1;exitX=0.581;exitY=-0.067;exitDx=0;exitDy=0;exitPerimeter=0;" edge="1" parent="1" source="a72-MfRlyAKctN8nn2GD-36">
          <mxGeometry width="50" height="50" relative="1" as="geometry">
            <mxPoint x="30" y="-610" as="sourcePoint" />
            <mxPoint x="50" y="-650" as="targetPoint" />
          </mxGeometry>
        </mxCell>
        <mxCell id="a72-MfRlyAKctN8nn2GD-40" value="" style="ellipse;whiteSpace=wrap;html=1;" vertex="1" parent="1">
          <mxGeometry x="340" y="-610" width="120" height="50" as="geometry" />
        </mxCell>
        <mxCell id="a72-MfRlyAKctN8nn2GD-41" value="add gardening skills" style="text;html=1;strokeColor=none;fillColor=none;align=center;verticalAlign=middle;whiteSpace=wrap;rounded=0;" vertex="1" parent="1">
          <mxGeometry x="380" y="-590" width="40" height="10" as="geometry" />
        </mxCell>
        <mxCell id="a72-MfRlyAKctN8nn2GD-42" value="" style="endArrow=none;html=1;entryX=0;entryY=0.333;entryDx=0;entryDy=0;entryPerimeter=0;" edge="1" parent="1" target="a72-MfRlyAKctN8nn2GD-40">
          <mxGeometry width="50" height="50" relative="1" as="geometry">
            <mxPoint x="60" y="-710" as="sourcePoint" />
            <mxPoint x="120" y="-700" as="targetPoint" />
          </mxGeometry>
        </mxCell>
        <mxCell id="a72-MfRlyAKctN8nn2GD-43" value="" style="endArrow=none;html=1;entryX=0.008;entryY=0.66;entryDx=0;entryDy=0;entryPerimeter=0;" edge="1" parent="1" target="a72-MfRlyAKctN8nn2GD-40">
          <mxGeometry width="50" height="50" relative="1" as="geometry">
            <mxPoint x="60" y="-410" as="sourcePoint" />
            <mxPoint x="340" y="-570" as="targetPoint" />
          </mxGeometry>
        </mxCell>
        <mxCell id="a72-MfRlyAKctN8nn2GD-44" value="" style="endArrow=classic;html=1;" edge="1" parent="1">
          <mxGeometry width="50" height="50" relative="1" as="geometry">
            <mxPoint x="50" y="-430" as="sourcePoint" />
            <mxPoint x="320" y="-830" as="targetPoint" />
          </mxGeometry>
        </mxCell>
        <mxCell id="a72-MfRlyAKctN8nn2GD-45" value="" style="ellipse;whiteSpace=wrap;html=1;" vertex="1" parent="1">
          <mxGeometry x="480" y="-620" width="120" height="60" as="geometry" />
        </mxCell>
        <mxCell id="a72-MfRlyAKctN8nn2GD-46" value="Login" style="text;html=1;strokeColor=none;fillColor=none;align=center;verticalAlign=middle;whiteSpace=wrap;rounded=0;" vertex="1" parent="1">
          <mxGeometry x="520" y="-600" width="40" height="20" as="geometry" />
        </mxCell>
        <mxCell id="a72-MfRlyAKctN8nn2GD-47" value="" style="endArrow=classic;html=1;entryX=0;entryY=1;entryDx=0;entryDy=0;" edge="1" parent="1" target="a72-MfRlyAKctN8nn2GD-45">
          <mxGeometry width="50" height="50" relative="1" as="geometry">
            <mxPoint x="60" y="-410" as="sourcePoint" />
            <mxPoint x="130" y="-420" as="targetPoint" />
          </mxGeometry>
        </mxCell>
        <mxCell id="a72-MfRlyAKctN8nn2GD-48" value="" style="endArrow=none;html=1;exitX=0.842;exitY=0.05;exitDx=0;exitDy=0;exitPerimeter=0;" edge="1" parent="1" source="a72-MfRlyAKctN8nn2GD-45">
          <mxGeometry width="50" height="50" relative="1" as="geometry">
            <mxPoint x="590" y="-620" as="sourcePoint" />
            <mxPoint x="790" y="-720" as="targetPoint" />
          </mxGeometry>
        </mxCell>
        <mxCell id="a72-MfRlyAKctN8nn2GD-49" value="" style="endArrow=none;dashed=1;html=1;dashPattern=1 3;strokeWidth=2;exitX=0.7;exitY=-0.014;exitDx=0;exitDy=0;exitPerimeter=0;entryX=0.5;entryY=1;entryDx=0;entryDy=0;" edge="1" parent="1" source="a72-MfRlyAKctN8nn2GD-21" target="a72-MfRlyAKctN8nn2GD-17">
          <mxGeometry width="50" height="50" relative="1" as="geometry">
            <mxPoint x="390" y="-770" as="sourcePoint" />
            <mxPoint x="384" y="-810" as="targetPoint" />
          </mxGeometry>
        </mxCell>
        <mxCell id="a72-MfRlyAKctN8nn2GD-50" value="" style="endArrow=none;dashed=1;html=1;exitX=0.275;exitY=0.067;exitDx=0;exitDy=0;exitPerimeter=0;" edge="1" parent="1" source="a72-MfRlyAKctN8nn2GD-45" target="a72-MfRlyAKctN8nn2GD-17">
          <mxGeometry width="50" height="50" relative="1" as="geometry">
            <mxPoint x="420" y="-770" as="sourcePoint" />
            <mxPoint x="470" y="-820" as="targetPoint" />
          </mxGeometry>
        </mxCell>
        <mxCell id="a72-MfRlyAKctN8nn2GD-51" value="includes" style="text;html=1;strokeColor=none;fillColor=none;align=center;verticalAlign=middle;whiteSpace=wrap;rounded=0;rotation=60;" vertex="1" parent="1">
          <mxGeometry x="440" y="-775" width="40" height="25" as="geometry" />
        </mxCell>
        <mxCell id="a72-MfRlyAKctN8nn2GD-52" value="" style="ellipse;whiteSpace=wrap;html=1;" vertex="1" parent="1">
          <mxGeometry x="470" y="-500" width="160" height="70" as="geometry" />
        </mxCell>
        <mxCell id="a72-MfRlyAKctN8nn2GD-53" value="Find Connections for same skills" style="text;html=1;strokeColor=none;fillColor=none;align=center;verticalAlign=middle;whiteSpace=wrap;rounded=0;" vertex="1" parent="1">
          <mxGeometry x="530" y="-475" width="40" height="20" as="geometry" />
        </mxCell>
        <mxCell id="a72-MfRlyAKctN8nn2GD-54" value="" style="endArrow=classic;html=1;entryX=0.025;entryY=0.629;entryDx=0;entryDy=0;entryPerimeter=0;" edge="1" parent="1" target="a72-MfRlyAKctN8nn2GD-52">
          <mxGeometry width="50" height="50" relative="1" as="geometry">
            <mxPoint x="60" y="-410" as="sourcePoint" />
            <mxPoint x="120" y="-420" as="targetPoint" />
          </mxGeometry>
        </mxCell>
        <mxCell id="a72-MfRlyAKctN8nn2GD-55" value="" style="endArrow=none;html=1;" edge="1" parent="1">
          <mxGeometry width="50" height="50" relative="1" as="geometry">
            <mxPoint x="610" y="-490" as="sourcePoint" />
            <mxPoint x="790" y="-720" as="targetPoint" />
          </mxGeometry>
        </mxCell>
        <mxCell id="a72-MfRlyAKctN8nn2GD-56" value="" style="endArrow=none;html=1;" edge="1" parent="1">
          <mxGeometry width="50" height="50" relative="1" as="geometry">
            <mxPoint x="60" y="-410" as="sourcePoint" />
            <mxPoint x="610" y="-410" as="targetPoint" />
          </mxGeometry>
        </mxCell>
        <mxCell id="a72-MfRlyAKctN8nn2GD-57" value="" style="ellipse;whiteSpace=wrap;html=1;" vertex="1" parent="1">
          <mxGeometry x="610" y="-440" width="120" height="60" as="geometry" />
        </mxCell>
        <mxCell id="a72-MfRlyAKctN8nn2GD-58" value="view balance in account" style="text;html=1;strokeColor=none;fillColor=none;align=center;verticalAlign=middle;whiteSpace=wrap;rounded=0;" vertex="1" parent="1">
          <mxGeometry x="650" y="-420" width="40" height="20" as="geometry" />
        </mxCell>
        <mxCell id="a72-MfRlyAKctN8nn2GD-59" value="" style="endArrow=none;dashed=1;html=1;exitX=0.5;exitY=0;exitDx=0;exitDy=0;" edge="1" parent="1" source="a72-MfRlyAKctN8nn2GD-57" target="a72-MfRlyAKctN8nn2GD-45">
          <mxGeometry width="50" height="50" relative="1" as="geometry">
            <mxPoint x="570" y="-520" as="sourcePoint" />
            <mxPoint x="620" y="-570" as="targetPoint" />
          </mxGeometry>
        </mxCell>
        <mxCell id="a72-MfRlyAKctN8nn2GD-60" value="includes" style="text;html=1;strokeColor=none;fillColor=none;align=center;verticalAlign=middle;whiteSpace=wrap;rounded=0;rotation=45;" vertex="1" parent="1">
          <mxGeometry x="580" y="-550" width="50" height="20" as="geometry" />
        </mxCell>
        <mxCell id="a72-MfRlyAKctN8nn2GD-63" value="" style="ellipse;whiteSpace=wrap;html=1;" vertex="1" parent="1">
          <mxGeometry x="730" y="-530" width="100" height="60" as="geometry" />
        </mxCell>
        <mxCell id="a72-MfRlyAKctN8nn2GD-64" value="adding new funds" style="text;html=1;strokeColor=none;fillColor=none;align=center;verticalAlign=middle;whiteSpace=wrap;rounded=0;" vertex="1" parent="1">
          <mxGeometry x="760" y="-510" width="40" height="20" as="geometry" />
        </mxCell>
        <mxCell id="a72-MfRlyAKctN8nn2GD-65" value="" style="endArrow=none;dashed=1;html=1;entryX=0.3;entryY=1.033;entryDx=0;entryDy=0;entryPerimeter=0;exitX=0.95;exitY=0.233;exitDx=0;exitDy=0;exitPerimeter=0;" edge="1" parent="1" source="a72-MfRlyAKctN8nn2GD-57" target="a72-MfRlyAKctN8nn2GD-63">
          <mxGeometry width="50" height="50" relative="1" as="geometry">
            <mxPoint x="730" y="-440" as="sourcePoint" />
            <mxPoint x="770" y="-470" as="targetPoint" />
          </mxGeometry>
        </mxCell>
        <mxCell id="a72-MfRlyAKctN8nn2GD-67" value="" style="ellipse;whiteSpace=wrap;html=1;" vertex="1" parent="1">
          <mxGeometry x="550" y="-700" width="90" height="50" as="geometry" />
        </mxCell>
        <mxCell id="a72-MfRlyAKctN8nn2GD-68" value="Payment&amp;nbsp;&lt;br&gt;Recieved" style="text;html=1;strokeColor=none;fillColor=none;align=center;verticalAlign=middle;whiteSpace=wrap;rounded=0;" vertex="1" parent="1">
          <mxGeometry x="575" y="-685" width="40" height="20" as="geometry" />
        </mxCell>
        <mxCell id="a72-MfRlyAKctN8nn2GD-69" value="extends&lt;br&gt;" style="text;html=1;strokeColor=none;fillColor=none;align=center;verticalAlign=middle;whiteSpace=wrap;rounded=0;rotation=-45;" vertex="1" parent="1">
          <mxGeometry x="740" y="-450" width="40" height="20" as="geometry" />
        </mxCell>
        <mxCell id="a72-MfRlyAKctN8nn2GD-70" value="" style="endArrow=none;dashed=1;html=1;entryX=0.27;entryY=0.033;entryDx=0;entryDy=0;entryPerimeter=0;exitX=0.789;exitY=1;exitDx=0;exitDy=0;exitPerimeter=0;" edge="1" parent="1" source="a72-MfRlyAKctN8nn2GD-67" target="a72-MfRlyAKctN8nn2GD-63">
          <mxGeometry width="50" height="50" relative="1" as="geometry">
            <mxPoint x="710" y="-530" as="sourcePoint" />
            <mxPoint x="760" y="-580" as="targetPoint" />
          </mxGeometry>
        </mxCell>
        <mxCell id="a72-MfRlyAKctN8nn2GD-71" value="" style="endArrow=classic;html=1;" edge="1" parent="1">
          <mxGeometry width="50" height="50" relative="1" as="geometry">
            <mxPoint x="790" y="-720" as="sourcePoint" />
            <mxPoint x="670" y="-440" as="targetPoint" />
          </mxGeometry>
        </mxCell>
        <mxCell id="a72-MfRlyAKctN8nn2GD-72" value="" style="endArrow=classic;html=1;" edge="1" parent="1">
          <mxGeometry width="50" height="50" relative="1" as="geometry">
            <mxPoint x="70" y="-410" as="sourcePoint" />
            <mxPoint x="340" y="-360" as="targetPoint" />
          </mxGeometry>
        </mxCell>
        <mxCell id="a72-MfRlyAKctN8nn2GD-76" value="" style="ellipse;whiteSpace=wrap;html=1;" vertex="1" parent="1">
          <mxGeometry x="340" y="-400" width="130" height="80" as="geometry" />
        </mxCell>
        <mxCell id="a72-MfRlyAKctN8nn2GD-78" value="Check Payments made" style="text;html=1;strokeColor=none;fillColor=none;align=center;verticalAlign=middle;whiteSpace=wrap;rounded=0;" vertex="1" parent="1">
          <mxGeometry x="380" y="-370" width="50" height="20" as="geometry" />
        </mxCell>
        <mxCell id="a72-MfRlyAKctN8nn2GD-79" value="" style="endArrow=none;html=1;exitX=0.989;exitY=0.26;exitDx=0;exitDy=0;exitPerimeter=0;" edge="1" parent="1" source="a72-MfRlyAKctN8nn2GD-67">
          <mxGeometry width="50" height="50" relative="1" as="geometry">
            <mxPoint x="640" y="-660" as="sourcePoint" />
            <mxPoint x="780" y="-720" as="targetPoint" />
          </mxGeometry>
        </mxCell>
        <mxCell id="a72-MfRlyAKctN8nn2GD-81" value="" style="ellipse;whiteSpace=wrap;html=1;" vertex="1" parent="1">
          <mxGeometry x="620" y="-870" width="100" height="70" as="geometry" />
        </mxCell>
        <mxCell id="a72-MfRlyAKctN8nn2GD-82" value="Read Messages" style="text;html=1;strokeColor=none;fillColor=none;align=center;verticalAlign=middle;whiteSpace=wrap;rounded=0;" vertex="1" parent="1">
          <mxGeometry x="650" y="-850" width="40" height="20" as="geometry" />
        </mxCell>
        <mxCell id="a72-MfRlyAKctN8nn2GD-83" value="" style="endArrow=none;html=1;" edge="1" parent="1" source="a72-MfRlyAKctN8nn2GD-81">
          <mxGeometry width="50" height="50" relative="1" as="geometry">
            <mxPoint x="700" y="-760" as="sourcePoint" />
            <mxPoint x="790" y="-720" as="targetPoint" />
          </mxGeometry>
        </mxCell>
        <mxCell id="a72-MfRlyAKctN8nn2GD-84" value="" style="endArrow=none;html=1;" edge="1" parent="1" target="a72-MfRlyAKctN8nn2GD-52">
          <mxGeometry width="50" height="50" relative="1" as="geometry">
            <mxPoint x="60" y="-710" as="sourcePoint" />
            <mxPoint x="200" y="-630" as="targetPoint" />
          </mxGeometry>
        </mxCell>
        <mxCell id="a72-MfRlyAKctN8nn2GD-88" value="" style="endArrow=classic;html=1;entryX=0.5;entryY=1;entryDx=0;entryDy=0;" edge="1" parent="1" source="a72-MfRlyAKctN8nn2GD-6" target="a72-MfRlyAKctN8nn2GD-21">
          <mxGeometry width="50" height="50" relative="1" as="geometry">
            <mxPoint x="70" y="-420" as="sourcePoint" />
            <mxPoint x="120" y="-470" as="targetPoint" />
          </mxGeometry>
        </mxCell>
      </root>
    </mxGraphModel>
  </diagram>
</mxfile>
